<svg xmlns="http://www.w3.org/2000/svg" width="400" height="300" viewBox="0 0 400 300">
  <rect width="400" height="300" fill="#1a2332"/>
  <rect x="30" y="30" width="80" height="240" rx="4" fill="#2a3544"/>
  <rect x="45" y="50" width="50" height="8" rx="2" fill="#4b5563"/>
  <rect x="45" y="70" width="40" height="6" rx="2" fill="#374151"/>
  <rect x="45" y="86" width="50" height="6" rx="2" fill="#374151"/>
  <rect x="45" y="102" width="35" height="6" rx="2" fill="#374151"/>
  <rect x="45" y="130" width="50" height="8" rx="2" fill="#4b5563"/>
  <rect x="45" y="150" width="40" height="6" rx="2" fill="#3b82f6"/>
  <rect x="45" y="166" width="50" height="6" rx="2" fill="#374151"/>
  <rect x="45" y="182" width="35" height="6" rx="2" fill="#374151"/>
  <rect x="130" y="30" width="240" height="240" rx="4" fill="#232d3b"/>
  <rect x="150" y="60" width="100" height="12" rx="2" fill="#4b5563"/>
  <rect x="150" y="90" width="60" height="60" rx="4" fill="#3b82f6"/>
  <rect x="220" y="90" width="60" height="60" rx="4" fill="#22c55e"/>
  <rect x="290" y="90" width="60" height="60" rx="4" fill="#eab308"/>
  <rect x="150" y="170" width="60" height="60" rx="4" fill="#ec4899"/>
  <rect x="220" y="170" width="60" height="60" rx="4" fill="#8b5cf6"/>
  <rect x="290" y="170" width="60" height="60" rx="4" fill="#06b6d4"/>
</svg>
